<svg xmlns="http://www.w3.org/2000/svg" xmlns:xlink="http://www.w3.org/1999/xlink" width="1040" height="711.3"><rect width="1040" height="711.3" rx="5" ry="5" class="a"/><svg y="0%" x="0%"><circle cx="20" cy="20" r="6" fill="#ff5f58"/><circle cx="40" cy="20" r="6" fill="#ffbd2e"/><circle cx="60" cy="20" r="6" fill="#18c132"/></svg><svg height="651.3" viewBox="0 0 100 65.13" width="1000" x="15" xmlns="http://www.w3.org/2000/svg" xmlns:xlink="http://www.w3.org/1999/xlink" y="50"><style>@keyframes m{0%{transform:translateX(0)}.8%{transform:translateX(-100px)}1.7%{transform:translateX(-200px)}2.6%{transform:translateX(-300px)}3.5%{transform:translateX(-400px)}4.4%{transform:translateX(-500px)}5.2%{transform:translateX(-600px)}6.1%{transform:translateX(-700px)}7%{transform:translateX(-800px)}7.9%{transform:translateX(-900px)}8.8%{transform:translateX(-1000px)}9.6%{transform:translateX(-1100px)}10.5%{transform:translateX(-1200px)}11.4%{transform:translateX(-1300px)}12.3%{transform:translateX(-1400px)}13.2%{transform:translateX(-1500px)}14%{transform:translateX(-1600px)}14.9%{transform:translateX(-1700px)}15.8%{transform:translateX(-1800px)}16.7%{transform:translateX(-1900px)}17.6%{transform:translateX(-2000px)}18.4%{transform:translateX(-2100px)}19.3%{transform:translateX(-2200px)}20.2%{transform:translateX(-2300px)}21.1%{transform:translateX(-2400px)}22%{transform:translateX(-2500px)}22.8%{transform:translateX(-2600px)}23.7%{transform:translateX(-2700px)}24.6%{transform:translateX(-2800px)}25.5%{transform:translateX(-2900px)}26.4%{transform:translateX(-3000px)}27.2%{transform:translateX(-3100px)}28.1%{transform:translateX(-3200px)}29%{transform:translateX(-3300px)}29.9%{transform:translateX(-3400px)}30.7%{transform:translateX(-3500px)}31.6%{transform:translateX(-3600px)}32.5%{transform:translateX(-3700px)}33.4%{transform:translateX(-3800px)}34.3%{transform:translateX(-3900px)}35.1%{transform:translateX(-4000px)}36%{transform:translateX(-4100px)}36.9%{transform:translateX(-4200px)}37.8%{transform:translateX(-4300px)}38.7%{transform:translateX(-4400px)}39.5%{transform:translateX(-4500px)}40.4%{transform:translateX(-4600px)}41.3%{transform:translateX(-4700px)}41.9%{transform:translateX(-5800px)}45.6%{transform:translateX(-5900px)}49.3%{transform:translateX(-6000px)}53%{transform:translateX(-6100px)}56.7%{transform:translateX(-6200px)}60.4%{transform:translateX(-6300px)}64.1%{transform:translateX(-6400px)}67.8%{transform:translateX(-6500px)}71.5%{transform:translateX(-6600px)}75.2%{transform:translateX(-6700px)}78.9%{transform:translateX(-6800px)}82.6%{transform:translateX(-6900px)}86.3%{transform:translateX(-7000px)}90%{transform:translateX(-7100px)}93.7%{transform:translateX(-7200px)}97.4%{transform:translateX(-7300px)}to{transform:translateX(-7400px)}}.a{fill:#282d35}.f,.g,.i,.j{fill:#b9c0cb;white-space:pre}.g,.i,.j{font-weight:700}.i,.j{fill:#e88388}.j{fill:#66c2cd}</style><g font-family="Monaco,Consolas,Menlo,'Bitstream Vera Sans Mono','Powerline Symbols',monospace" font-size="1.67"><defs><symbol id="1"><text y="1.67" class="f">$</text><text x="2.004" y="1.67" class="f">acmg</text></symbol><symbol id="2"><text y="1.67" class="f">$</text><text x="2.004" y="1.67" class="f">acmg</text><text x="7.014" y="1.67" class="f">classify</text></symbol><symbol id="3"><text y="1.67" class="f">$</text><text x="2.004" y="1.67" class="f">acmg</text><text x="7.014" y="1.67" class="f">classify</text><text x="16.032" y="1.67" class="f">--hgvs</text></symbol><symbol id="4"><text y="1.67" class="f">$</text><text x="2.004" y="1.67" class="f">acmg</text><text x="7.014" y="1.67" class="f">classify</text><text x="16.032" y="1.67" class="f">--hgvs</text><text x="23.046" y="1.67" class="f">&quot;NM_001005237.2:c.200A&gt;G&quot;</text></symbol><symbol id="5"><text y="1.67" class="g">NM_001005237.</text><text x="13.026" y="1.67" style="white-space:pre" fill="#a8cc8c" font-weight="700">2:c</text><text x="16.032" y="1.67" class="g">.200A&gt;G</text><text x="25.05" y="1.67" class="f">OR8U1</text></symbol><symbol id="6"><text x="30.06" y="1.67" class="f">sample:</text><text x="38.076" y="1.67" class="f">S5-insufficient-evidence</text></symbol><symbol id="7"><text x="62.124" y="1.67" class="i">INSUFFICIENT</text><text x="75.15" y="1.67" class="i">EVIDENCE</text></symbol><symbol id="8"><text x="83.166" y="1.67" class="f">No</text><text x="86.172" y="1.67" class="f">catalog</text><text x="94.188" y="1.67" class="f">covera</text></symbol><symbol id="9"><text y="1.67" class="f">ge.</text><text x="4.008" y="1.67" class="f">No</text><text x="7.014" y="1.67" class="f">ACMG</text><text x="12.024" y="1.67" class="f">tier</text><text x="17.034" y="1.67" class="f">is</text><text x="20.04" y="1.67" class="f">emitted.</text><text x="29.058" y="1.67" class="f">Confidence</text><text x="40.08" y="1.67" class="f">is</text><text x="43.086" y="1.67" class="j">0</text><text x="44.088" y="1.67" class="f">.</text><text x="46.092" y="1.67" class="f">This</text><text x="51.102" y="1.67" class="f">is</text><text x="54.108" y="1.67" class="f">a</text><text x="56.112" y="1.67" class="f">refusal,</text><text x="65.13" y="1.67" class="f">not</text><text x="69.138" y="1.67" class="f">a</text><text x="71.142" y="1.67" class="f">guess.</text></symbol><symbol id="10"><text x="77.154" y="1.67" class="f">confidence:</text><text x="89.178" y="1.67" class="j">0.0</text></symbol><symbol id="11"><text x="92.184" y="1.67" class="f">applied:</text></symbol><symbol id="12"><text x="1.002" y="1.67" class="g">(</text><text x="2.004" y="1.67" class="f">none</text><text x="6.012" y="1.67" class="g">)</text></symbol><symbol id="13"><text x="7.014" y="1.67" class="f">cost:</text><text x="13.026" y="1.67" class="f">$</text><text x="14.028" y="1.67" class="j">0.0000</text><text x="21.042" y="1.67" class="g">(</text><text x="22.044" y="1.67" class="f">cache-only</text><text x="32.064" y="1.67" class="g">)</text><text x="35.07" y="1.67" class="f">latency:</text><text x="44.088" y="1.67" class="j">0.35</text><text x="49.098" y="1.67" class="f">ms</text></symbol><symbol id="14"><text x="51.102" y="1.67" class="f">Research</text><text x="60.12" y="1.67" class="f">tool</text><text x="65.13" y="1.67" class="f">only.</text><text x="71.142" y="1.67" class="f">This</text><text x="76.152" y="1.67" class="f">output</text><text x="83.166" y="1.67" class="f">does</text><text x="88.176" y="1.67" class="f">not</text><text x="92.184" y="1.67" class="f">constitu</text></symbol><symbol id="15"><text y="1.67" class="f">te</text><text x="3.006" y="1.67" class="f">clinical</text><text x="12.024" y="1.67" class="f">interpretation</text><text x="27.054" y="1.67" class="f">and</text><text x="31.062" y="1.67" class="f">requires</text><text x="40.08" y="1.67" class="f">review</text><text x="47.094" y="1.67" class="f">by</text><text x="50.1" y="1.67" class="f">a</text><text x="52.104" y="1.67" class="f">licensed</text><text x="61.122" y="1.67" class="f">molecular</text><text x="71.142" y="1.67" class="f">geneticist.</text></symbol><symbol id="a"><path fill="transparent" d="M0 0h100v31H0z"/></symbol><symbol id="b"><path fill="#6f7683" d="M0 0h1.102v2.171H0z"/></symbol></defs><path class="a" d="M0 0h100v65.13H0z"/><g style="animation-duration:9.4742s;animation-iteration-count:infinite;animation-name:m;animation-timing-function:steps(1,end)"><svg width="7500"><svg><use xlink:href="#a"/><use xlink:href="#b" x="-.004"/></svg><svg x="100"><use xlink:href="#a"/><use xlink:href="#b" x="1.996"/><text y="1.67" class="f">$</text></svg><svg x="200"><use xlink:href="#a"/><use xlink:href="#b" x="2.996"/><text y="1.67" class="f">$</text><text x="2.004" y="1.67" class="f">a</text></svg><svg x="300"><use xlink:href="#a"/><use xlink:href="#b" x="3.996"/><text y="1.67" class="f">$</text><text x="2.004" y="1.67" class="f">ac</text></svg><svg x="400"><use xlink:href="#a"/><use xlink:href="#b" x="4.996"/><text y="1.67" class="f">$</text><text x="2.004" y="1.67" class="f">acm</text></svg><svg x="500"><use xlink:href="#a"/><use xlink:href="#b" x="5.996"/><use xlink:href="#1"/></svg><svg x="600"><use xlink:href="#a"/><use xlink:href="#b" x="6.996"/><use xlink:href="#1"/></svg><svg x="700"><use xlink:href="#a"/><use xlink:href="#b" x="7.996"/><text y="1.67" class="f">$</text><text x="2.004" y="1.67" class="f">acmg</text><text x="7.014" y="1.67" class="f">c</text></svg><svg x="800"><use xlink:href="#a"/><use xlink:href="#b" x="8.996"/><text y="1.67" class="f">$</text><text x="2.004" y="1.67" class="f">acmg</text><text x="7.014" y="1.67" class="f">cl</text></svg><svg x="900"><use xlink:href="#a"/><use xlink:href="#b" x="9.996"/><text y="1.67" class="f">$</text><text x="2.004" y="1.67" class="f">acmg</text><text x="7.014" y="1.67" class="f">cla</text></svg><svg x="1000"><use xlink:href="#a"/><use xlink:href="#b" x="10.996"/><text y="1.67" class="f">$</text><text x="2.004" y="1.67" class="f">acmg</text><text x="7.014" y="1.67" class="f">clas</text></svg><svg x="1100"><use xlink:href="#a"/><use xlink:href="#b" x="11.996"/><text y="1.67" class="f">$</text><text x="2.004" y="1.67" class="f">acmg</text><text x="7.014" y="1.67" class="f">class</text></svg><svg x="1200"><use xlink:href="#a"/><use xlink:href="#b" x="12.996"/><text y="1.67" class="f">$</text><text x="2.004" y="1.67" class="f">acmg</text><text x="7.014" y="1.67" class="f">classi</text></svg><svg x="1300"><use xlink:href="#a"/><use xlink:href="#b" x="13.996"/><text y="1.67" class="f">$</text><text x="2.004" y="1.67" class="f">acmg</text><text x="7.014" y="1.67" class="f">classif</text></svg><svg x="1400"><use xlink:href="#a"/><use xlink:href="#b" x="14.996"/><use xlink:href="#2"/></svg><svg x="1500"><use xlink:href="#a"/><use xlink:href="#b" x="15.996"/><use xlink:href="#2"/></svg><svg x="1600"><use xlink:href="#a"/><use xlink:href="#b" x="16.996"/><text y="1.67" class="f">$</text><text x="2.004" y="1.67" class="f">acmg</text><text x="7.014" y="1.67" class="f">classify</text><text x="16.032" y="1.67" class="f">-</text></svg><svg x="1700"><use xlink:href="#a"/><use xlink:href="#b" x="17.996"/><text y="1.67" class="f">$</text><text x="2.004" y="1.67" class="f">acmg</text><text x="7.014" y="1.67" class="f">classify</text><text x="16.032" y="1.67" class="f">--</text></svg><svg x="1800"><use xlink:href="#a"/><use xlink:href="#b" x="18.996"/><text y="1.67" class="f">$</text><text x="2.004" y="1.67" class="f">acmg</text><text x="7.014" y="1.67" class="f">classify</text><text x="16.032" y="1.67" class="f">--h</text></svg><svg x="1900"><use xlink:href="#a"/><use xlink:href="#b" x="19.996"/><text y="1.67" class="f">$</text><text x="2.004" y="1.67" class="f">acmg</text><text x="7.014" y="1.67" class="f">classify</text><text x="16.032" y="1.67" class="f">--hg</text></svg><svg x="2000"><use xlink:href="#a"/><use xlink:href="#b" x="20.996"/><text y="1.67" class="f">$</text><text x="2.004" y="1.67" class="f">acmg</text><text x="7.014" y="1.67" class="f">classify</text><text x="16.032" y="1.67" class="f">--hgv</text></svg><svg x="2100"><use xlink:href="#a"/><use xlink:href="#b" x="21.996"/><use xlink:href="#3"/></svg><svg x="2200"><use xlink:href="#a"/><use xlink:href="#b" x="22.996"/><use xlink:href="#3"/></svg><svg x="2300"><use xlink:href="#a"/><use xlink:href="#b" x="23.996"/><text y="1.67" class="f">$</text><text x="2.004" y="1.67" class="f">acmg</text><text x="7.014" y="1.67" class="f">classify</text><text x="16.032" y="1.67" class="f">--hgvs</text><text x="23.046" y="1.67" class="f">&quot;</text></svg><svg x="2400"><use xlink:href="#a"/><use xlink:href="#b" x="24.996"/><text y="1.67" class="f">$</text><text x="2.004" y="1.67" class="f">acmg</text><text x="7.014" y="1.67" class="f">classify</text><text x="16.032" y="1.67" class="f">--hgvs</text><text x="23.046" y="1.67" class="f">&quot;N</text></svg><svg x="2500"><use xlink:href="#a"/><use xlink:href="#b" x="25.996"/><text y="1.67" class="f">$</text><text x="2.004" y="1.67" class="f">acmg</text><text x="7.014" y="1.67" class="f">classify</text><text x="16.032" y="1.67" class="f">--hgvs</text><text x="23.046" y="1.67" class="f">&quot;NM</text></svg><svg x="2600"><use xlink:href="#a"/><use xlink:href="#b" x="26.996"/><text y="1.67" class="f">$</text><text x="2.004" y="1.67" class="f">acmg</text><text x="7.014" y="1.67" class="f">classify</text><text x="16.032" y="1.67" class="f">--hgvs</text><text x="23.046" y="1.67" class="f">&quot;NM_</text></svg><svg x="2700"><use xlink:href="#a"/><use xlink:href="#b" x="27.996"/><text y="1.67" class="f">$</text><text x="2.004" y="1.67" class="f">acmg</text><text x="7.014" y="1.67" class="f">classify</text><text x="16.032" y="1.67" class="f">--hgvs</text><text x="23.046" y="1.67" class="f">&quot;NM_0</text></svg><svg x="2800"><use xlink:href="#a"/><use xlink:href="#b" x="28.996"/><text y="1.67" class="f">$</text><text x="2.004" y="1.67" class="f">acmg</text><text x="7.014" y="1.67" class="f">classify</text><text x="16.032" y="1.67" class="f">--hgvs</text><text x="23.046" y="1.67" class="f">&quot;NM_00</text></svg><svg x="2900"><use xlink:href="#a"/><use xlink:href="#b" x="29.996"/><text y="1.67" class="f">$</text><text x="2.004" y="1.67" class="f">acmg</text><text x="7.014" y="1.67" class="f">classify</text><text x="16.032" y="1.67" class="f">--hgvs</text><text x="23.046" y="1.67" class="f">&quot;NM_001</text></svg><svg x="3000"><use xlink:href="#a"/><use xlink:href="#b" x="30.996"/><text y="1.67" class="f">$</text><text x="2.004" y="1.67" class="f">acmg</text><text x="7.014" y="1.67" class="f">classify</text><text x="16.032" y="1.67" class="f">--hgvs</text><text x="23.046" y="1.67" class="f">&quot;NM_0010</text></svg><svg x="3100"><use xlink:href="#a"/><use xlink:href="#b" x="31.996"/><text y="1.67" class="f">$</text><text x="2.004" y="1.67" class="f">acmg</text><text x="7.014" y="1.67" class="f">classify</text><text x="16.032" y="1.67" class="f">--hgvs</text><text x="23.046" y="1.67" class="f">&quot;NM_00100</text></svg><svg x="3200"><use xlink:href="#a"/><use xlink:href="#b" x="32.996"/><text y="1.67" class="f">$</text><text x="2.004" y="1.67" class="f">acmg</text><text x="7.014" y="1.67" class="f">classify</text><text x="16.032" y="1.67" class="f">--hgvs</text><text x="23.046" y="1.67" class="f">&quot;NM_001005</text></svg><svg x="3300"><use xlink:href="#a"/><use xlink:href="#b" x="33.996"/><text y="1.67" class="f">$</text><text x="2.004" y="1.67" class="f">acmg</text><text x="7.014" y="1.67" class="f">classify</text><text x="16.032" y="1.67" class="f">--hgvs</text><text x="23.046" y="1.67" class="f">&quot;NM_0010052</text></svg><svg x="3400"><use xlink:href="#a"/><use xlink:href="#b" x="34.996"/><text y="1.67" class="f">$</text><text x="2.004" y="1.67" class="f">acmg</text><text x="7.014" y="1.67" class="f">classify</text><text x="16.032" y="1.67" class="f">--hgvs</text><text x="23.046" y="1.67" class="f">&quot;NM_00100523</text></svg><svg x="3500"><use xlink:href="#a"/><use xlink:href="#b" x="35.996"/><text y="1.67" class="f">$</text><text x="2.004" y="1.67" class="f">acmg</text><text x="7.014" y="1.67" class="f">classify</text><text x="16.032" y="1.67" class="f">--hgvs</text><text x="23.046" y="1.67" class="f">&quot;NM_001005237</text></svg><svg x="3600"><use xlink:href="#a"/><use xlink:href="#b" x="36.996"/><text y="1.67" class="f">$</text><text x="2.004" y="1.67" class="f">acmg</text><text x="7.014" y="1.67" class="f">classify</text><text x="16.032" y="1.67" class="f">--hgvs</text><text x="23.046" y="1.67" class="f">&quot;NM_001005237.</text></svg><svg x="3700"><use xlink:href="#a"/><use xlink:href="#b" x="37.996"/><text y="1.67" class="f">$</text><text x="2.004" y="1.67" class="f">acmg</text><text x="7.014" y="1.67" class="f">classify</text><text x="16.032" y="1.67" class="f">--hgvs</text><text x="23.046" y="1.67" class="f">&quot;NM_001005237.2</text></svg><svg x="3800"><use xlink:href="#a"/><use xlink:href="#b" x="38.996"/><text y="1.67" class="f">$</text><text x="2.004" y="1.67" class="f">acmg</text><text x="7.014" y="1.67" class="f">classify</text><text x="16.032" y="1.67" class="f">--hgvs</text><text x="23.046" y="1.67" class="f">&quot;NM_001005237.2:</text></svg><svg x="3900"><use xlink:href="#a"/><use xlink:href="#b" x="39.996"/><text y="1.67" class="f">$</text><text x="2.004" y="1.67" class="f">acmg</text><text x="7.014" y="1.67" class="f">classify</text><text x="16.032" y="1.67" class="f">--hgvs</text><text x="23.046" y="1.67" class="f">&quot;NM_001005237.2:c</text></svg><svg x="4000"><use xlink:href="#a"/><use xlink:href="#b" x="40.996"/><text y="1.67" class="f">$</text><text x="2.004" y="1.67" class="f">acmg</text><text x="7.014" y="1.67" class="f">classify</text><text x="16.032" y="1.67" class="f">--hgvs</text><text x="23.046" y="1.67" class="f">&quot;NM_001005237.2:c.</text></svg><svg x="4100"><use xlink:href="#a"/><use xlink:href="#b" x="41.996"/><text y="1.67" class="f">$</text><text x="2.004" y="1.67" class="f">acmg</text><text x="7.014" y="1.67" class="f">classify</text><text x="16.032" y="1.67" class="f">--hgvs</text><text x="23.046" y="1.67" class="f">&quot;NM_001005237.2:c.2</text></svg><svg x="4200"><use xlink:href="#a"/><use xlink:href="#b" x="42.996"/><text y="1.67" class="f">$</text><text x="2.004" y="1.67" class="f">acmg</text><text x="7.014" y="1.67" class="f">classify</text><text x="16.032" y="1.67" class="f">--hgvs</text><text x="23.046" y="1.67" class="f">&quot;NM_001005237.2:c.20</text></svg><svg x="4300"><use xlink:href="#a"/><use xlink:href="#b" x="43.996"/><text y="1.67" class="f">$</text><text x="2.004" y="1.67" class="f">acmg</text><text x="7.014" y="1.67" class="f">classify</text><text x="16.032" y="1.67" class="f">--hgvs</text><text x="23.046" y="1.67" class="f">&quot;NM_001005237.2:c.200</text></svg><svg x="4400"><use xlink:href="#a"/><use xlink:href="#b" x="44.996"/><text y="1.67" class="f">$</text><text x="2.004" y="1.67" class="f">acmg</text><text x="7.014" y="1.67" class="f">classify</text><text x="16.032" y="1.67" class="f">--hgvs</text><text x="23.046" y="1.67" class="f">&quot;NM_001005237.2:c.200A</text></svg><svg x="4500"><use xlink:href="#a"/><use xlink:href="#b" x="45.996"/><text y="1.67" class="f">$</text><text x="2.004" y="1.67" class="f">acmg</text><text x="7.014" y="1.67" class="f">classify</text><text x="16.032" y="1.67" class="f">--hgvs</text><text x="23.046" y="1.67" class="f">&quot;NM_001005237.2:c.200A&gt;</text></svg><svg x="4600"><use xlink:href="#a"/><use xlink:href="#b" x="46.996"/><text y="1.67" class="f">$</text><text x="2.004" y="1.67" class="f">acmg</text><text x="7.014" y="1.67" class="f">classify</text><text x="16.032" y="1.67" class="f">--hgvs</text><text x="23.046" y="1.67" class="f">&quot;NM_001005237.2:c.200A&gt;G</text></svg><svg x="4700"><use xlink:href="#a"/><use xlink:href="#b" x="47.996"/><use xlink:href="#4"/></svg><svg x="4800"><use xlink:href="#a"/><use xlink:href="#b" x="-.004" y="2.146"/><use xlink:href="#4"/></svg><svg x="4900"><use xlink:href="#a"/><use xlink:href="#b" x="29.996" y="4.317"/><use xlink:href="#4"/><use xlink:href="#5" y="2.171"/></svg><svg x="5000"><use xlink:href="#a"/><use xlink:href="#b" x="61.996" y="6.488"/><use xlink:href="#4"/><use xlink:href="#5" y="2.171"/><use xlink:href="#6" y="4.342"/></svg><svg x="5100"><use xlink:href="#a"/><use xlink:href="#b" x="82.996" y="8.659"/><use xlink:href="#4"/><use xlink:href="#5" y="2.171"/><use xlink:href="#6" y="4.342"/><use xlink:href="#7" y="6.513"/></svg><svg x="5200"><use xlink:href="#a"/><use xlink:href="#b" x="76.996" y="13.001"/><use xlink:href="#4"/><use xlink:href="#5" y="2.171"/><use xlink:href="#6" y="4.342"/><use xlink:href="#7" y="6.513"/><use xlink:href="#8" y="8.684"/><use xlink:href="#9" y="10.855"/></svg><svg x="5300"><use xlink:href="#a"/><use xlink:href="#b" x="91.996" y="15.172"/><use xlink:href="#4"/><use xlink:href="#5" y="2.171"/><use xlink:href="#6" y="4.342"/><use xlink:href="#7" y="6.513"/><use xlink:href="#8" y="8.684"/><use xlink:href="#9" y="10.855"/><use xlink:href="#10" y="13.026"/></svg><svg x="5400"><use xlink:href="#a"/><use xlink:href="#b" x="6.996" y="19.514"/><use xlink:href="#4"/><use xlink:href="#5" y="2.171"/><use xlink:href="#6" y="4.342"/><use xlink:href="#7" y="6.513"/><use xlink:href="#8" y="8.684"/><use xlink:href="#9" y="10.855"/><use xlink:href="#10" y="13.026"/><use xlink:href="#11" y="15.197"/><use xlink:href="#12" y="17.368"/></svg><svg x="5500"><use xlink:href="#a"/><use xlink:href="#b" x="6.996" y="21.685"/><use xlink:href="#4"/><use xlink:href="#5" y="2.171"/><use xlink:href="#6" y="4.342"/><use xlink:href="#7" y="6.513"/><use xlink:href="#8" y="8.684"/><use xlink:href="#9" y="10.855"/><use xlink:href="#10" y="13.026"/><use xlink:href="#11" y="15.197"/><use xlink:href="#12" y="17.368"/></svg><svg x="5600"><use xlink:href="#a"/><use xlink:href="#b" x="50.996" y="23.856"/><use xlink:href="#4"/><use xlink:href="#5" y="2.171"/><use xlink:href="#6" y="4.342"/><use xlink:href="#7" y="6.513"/><use xlink:href="#8" y="8.684"/><use xlink:href="#9" y="10.855"/><use xlink:href="#10" y="13.026"/><use xlink:href="#11" y="15.197"/><use xlink:href="#12" y="17.368"/><use xlink:href="#13" y="21.71"/></svg><svg x="5700"><use xlink:href="#a"/><use xlink:href="#b" x="50.996" y="26.027"/><use xlink:href="#4"/><use xlink:href="#5" y="2.171"/><use xlink:href="#6" y="4.342"/><use xlink:href="#7" y="6.513"/><use xlink:href="#8" y="8.684"/><use xlink:href="#9" y="10.855"/><use xlink:href="#10" y="13.026"/><use xlink:href="#11" y="15.197"/><use xlink:href="#12" y="17.368"/><use xlink:href="#13" y="21.71"/></svg><svg x="5800"><use xlink:href="#a"/><use xlink:href="#b" x="81.996" y="30.369"/><use xlink:href="#4"/><use xlink:href="#5" y="2.171"/><use xlink:href="#6" y="4.342"/><use xlink:href="#7" y="6.513"/><use xlink:href="#8" y="8.684"/><use xlink:href="#9" y="10.855"/><use xlink:href="#10" y="13.026"/><use xlink:href="#11" y="15.197"/><use xlink:href="#12" y="17.368"/><use xlink:href="#13" y="21.71"/><use xlink:href="#14" y="26.052"/><use xlink:href="#15" y="28.223"/></svg><svg x="5900"><use xlink:href="#a"/><use xlink:href="#b" x="81.996" y="30.369"/><use xlink:href="#4"/><use xlink:href="#5" y="2.171"/><use xlink:href="#6" y="4.342"/><use xlink:href="#7" y="6.513"/><use xlink:href="#8" y="8.684"/><use xlink:href="#9" y="10.855"/><use xlink:href="#10" y="13.026"/><use xlink:href="#11" y="15.197"/><use xlink:href="#12" y="17.368"/><use xlink:href="#13" y="21.71"/><use xlink:href="#14" y="26.052"/><use xlink:href="#15" y="28.223"/></svg><svg x="6000"><use xlink:href="#a"/><use xlink:href="#b" x="81.996" y="30.369"/><use xlink:href="#4"/><use xlink:href="#5" y="2.171"/><use xlink:href="#6" y="4.342"/><use xlink:href="#7" y="6.513"/><use xlink:href="#8" y="8.684"/><use xlink:href="#9" y="10.855"/><use xlink:href="#10" y="13.026"/><use xlink:href="#11" y="15.197"/><use xlink:href="#12" y="17.368"/><use xlink:href="#13" y="21.71"/><use xlink:href="#14" y="26.052"/><use xlink:href="#15" y="28.223"/></svg><svg x="6100"><use xlink:href="#a"/><use xlink:href="#b" x="81.996" y="30.369"/><use xlink:href="#4"/><use xlink:href="#5" y="2.171"/><use xlink:href="#6" y="4.342"/><use xlink:href="#7" y="6.513"/><use xlink:href="#8" y="8.684"/><use xlink:href="#9" y="10.855"/><use xlink:href="#10" y="13.026"/><use xlink:href="#11" y="15.197"/><use xlink:href="#12" y="17.368"/><use xlink:href="#13" y="21.71"/><use xlink:href="#14" y="26.052"/><use xlink:href="#15" y="28.223"/></svg><svg x="6200"><use xlink:href="#a"/><use xlink:href="#b" x="81.996" y="30.369"/><use xlink:href="#4"/><use xlink:href="#5" y="2.171"/><use xlink:href="#6" y="4.342"/><use xlink:href="#7" y="6.513"/><use xlink:href="#8" y="8.684"/><use xlink:href="#9" y="10.855"/><use xlink:href="#10" y="13.026"/><use xlink:href="#11" y="15.197"/><use xlink:href="#12" y="17.368"/><use xlink:href="#13" y="21.71"/><use xlink:href="#14" y="26.052"/><use xlink:href="#15" y="28.223"/></svg><svg x="6300"><use xlink:href="#a"/><use xlink:href="#b" x="81.996" y="30.369"/><use xlink:href="#4"/><use xlink:href="#5" y="2.171"/><use xlink:href="#6" y="4.342"/><use xlink:href="#7" y="6.513"/><use xlink:href="#8" y="8.684"/><use xlink:href="#9" y="10.855"/><use xlink:href="#10" y="13.026"/><use xlink:href="#11" y="15.197"/><use xlink:href="#12" y="17.368"/><use xlink:href="#13" y="21.71"/><use xlink:href="#14" y="26.052"/><use xlink:href="#15" y="28.223"/></svg><svg x="6400"><use xlink:href="#a"/><use xlink:href="#b" x="81.996" y="30.369"/><use xlink:href="#4"/><use xlink:href="#5" y="2.171"/><use xlink:href="#6" y="4.342"/><use xlink:href="#7" y="6.513"/><use xlink:href="#8" y="8.684"/><use xlink:href="#9" y="10.855"/><use xlink:href="#10" y="13.026"/><use xlink:href="#11" y="15.197"/><use xlink:href="#12" y="17.368"/><use xlink:href="#13" y="21.71"/><use xlink:href="#14" y="26.052"/><use xlink:href="#15" y="28.223"/></svg><svg x="6500"><use xlink:href="#a"/><use xlink:href="#b" x="81.996" y="30.369"/><use xlink:href="#4"/><use xlink:href="#5" y="2.171"/><use xlink:href="#6" y="4.342"/><use xlink:href="#7" y="6.513"/><use xlink:href="#8" y="8.684"/><use xlink:href="#9" y="10.855"/><use xlink:href="#10" y="13.026"/><use xlink:href="#11" y="15.197"/><use xlink:href="#12" y="17.368"/><use xlink:href="#13" y="21.71"/><use xlink:href="#14" y="26.052"/><use xlink:href="#15" y="28.223"/></svg><svg x="6600"><use xlink:href="#a"/><use xlink:href="#b" x="81.996" y="30.369"/><use xlink:href="#4"/><use xlink:href="#5" y="2.171"/><use xlink:href="#6" y="4.342"/><use xlink:href="#7" y="6.513"/><use xlink:href="#8" y="8.684"/><use xlink:href="#9" y="10.855"/><use xlink:href="#10" y="13.026"/><use xlink:href="#11" y="15.197"/><use xlink:href="#12" y="17.368"/><use xlink:href="#13" y="21.71"/><use xlink:href="#14" y="26.052"/><use xlink:href="#15" y="28.223"/></svg><svg x="6700"><use xlink:href="#a"/><use xlink:href="#b" x="81.996" y="30.369"/><use xlink:href="#4"/><use xlink:href="#5" y="2.171"/><use xlink:href="#6" y="4.342"/><use xlink:href="#7" y="6.513"/><use xlink:href="#8" y="8.684"/><use xlink:href="#9" y="10.855"/><use xlink:href="#10" y="13.026"/><use xlink:href="#11" y="15.197"/><use xlink:href="#12" y="17.368"/><use xlink:href="#13" y="21.71"/><use xlink:href="#14" y="26.052"/><use xlink:href="#15" y="28.223"/></svg><svg x="6800"><use xlink:href="#a"/><use xlink:href="#b" x="81.996" y="30.369"/><use xlink:href="#4"/><use xlink:href="#5" y="2.171"/><use xlink:href="#6" y="4.342"/><use xlink:href="#7" y="6.513"/><use xlink:href="#8" y="8.684"/><use xlink:href="#9" y="10.855"/><use xlink:href="#10" y="13.026"/><use xlink:href="#11" y="15.197"/><use xlink:href="#12" y="17.368"/><use xlink:href="#13" y="21.71"/><use xlink:href="#14" y="26.052"/><use xlink:href="#15" y="28.223"/></svg><svg x="6900"><use xlink:href="#a"/><use xlink:href="#b" x="81.996" y="30.369"/><use xlink:href="#4"/><use xlink:href="#5" y="2.171"/><use xlink:href="#6" y="4.342"/><use xlink:href="#7" y="6.513"/><use xlink:href="#8" y="8.684"/><use xlink:href="#9" y="10.855"/><use xlink:href="#10" y="13.026"/><use xlink:href="#11" y="15.197"/><use xlink:href="#12" y="17.368"/><use xlink:href="#13" y="21.71"/><use xlink:href="#14" y="26.052"/><use xlink:href="#15" y="28.223"/></svg><svg x="7000"><use xlink:href="#a"/><use xlink:href="#b" x="81.996" y="30.369"/><use xlink:href="#4"/><use xlink:href="#5" y="2.171"/><use xlink:href="#6" y="4.342"/><use xlink:href="#7" y="6.513"/><use xlink:href="#8" y="8.684"/><use xlink:href="#9" y="10.855"/><use xlink:href="#10" y="13.026"/><use xlink:href="#11" y="15.197"/><use xlink:href="#12" y="17.368"/><use xlink:href="#13" y="21.71"/><use xlink:href="#14" y="26.052"/><use xlink:href="#15" y="28.223"/></svg><svg x="7100"><use xlink:href="#a"/><use xlink:href="#b" x="81.996" y="30.369"/><use xlink:href="#4"/><use xlink:href="#5" y="2.171"/><use xlink:href="#6" y="4.342"/><use xlink:href="#7" y="6.513"/><use xlink:href="#8" y="8.684"/><use xlink:href="#9" y="10.855"/><use xlink:href="#10" y="13.026"/><use xlink:href="#11" y="15.197"/><use xlink:href="#12" y="17.368"/><use xlink:href="#13" y="21.71"/><use xlink:href="#14" y="26.052"/><use xlink:href="#15" y="28.223"/></svg><svg x="7200"><use xlink:href="#a"/><use xlink:href="#b" x="81.996" y="30.369"/><use xlink:href="#4"/><use xlink:href="#5" y="2.171"/><use xlink:href="#6" y="4.342"/><use xlink:href="#7" y="6.513"/><use xlink:href="#8" y="8.684"/><use xlink:href="#9" y="10.855"/><use xlink:href="#10" y="13.026"/><use xlink:href="#11" y="15.197"/><use xlink:href="#12" y="17.368"/><use xlink:href="#13" y="21.71"/><use xlink:href="#14" y="26.052"/><use xlink:href="#15" y="28.223"/></svg><svg x="7300"><use xlink:href="#a"/><use xlink:href="#b" x="81.996" y="30.369"/><use xlink:href="#4"/><use xlink:href="#5" y="2.171"/><use xlink:href="#6" y="4.342"/><use xlink:href="#7" y="6.513"/><use xlink:href="#8" y="8.684"/><use xlink:href="#9" y="10.855"/><use xlink:href="#10" y="13.026"/><use xlink:href="#11" y="15.197"/><use xlink:href="#12" y="17.368"/><use xlink:href="#13" y="21.71"/><use xlink:href="#14" y="26.052"/><use xlink:href="#15" y="28.223"/></svg><svg x="7400"><use xlink:href="#a"/><use xlink:href="#b" x="81.996" y="30.369"/><use xlink:href="#4"/><use xlink:href="#5" y="2.171"/><use xlink:href="#6" y="4.342"/><use xlink:href="#7" y="6.513"/><use xlink:href="#8" y="8.684"/><use xlink:href="#9" y="10.855"/><use xlink:href="#10" y="13.026"/><use xlink:href="#11" y="15.197"/><use xlink:href="#12" y="17.368"/><use xlink:href="#13" y="21.71"/><use xlink:href="#14" y="26.052"/><use xlink:href="#15" y="28.223"/></svg></svg></g></g></svg></svg>