<svg xmlns="http://www.w3.org/2000/svg" xmlns:xlink="http://www.w3.org/1999/xlink" width="1040" height="711.3"><rect width="1040" height="711.3" rx="5" ry="5" class="a"/><svg y="0%" x="0%"><circle cx="20" cy="20" r="6" fill="#ff5f58"/><circle cx="40" cy="20" r="6" fill="#ffbd2e"/><circle cx="60" cy="20" r="6" fill="#18c132"/></svg><svg height="651.3" viewBox="0 0 100 65.13" width="1000" x="15" xmlns="http://www.w3.org/2000/svg" xmlns:xlink="http://www.w3.org/1999/xlink" y="50"><style>@keyframes j{0%{transform:translateX(0)}.8%{transform:translateX(-100px)}1.7%{transform:translateX(-200px)}2.5%{transform:translateX(-300px)}3.4%{transform:translateX(-400px)}4.3%{transform:translateX(-500px)}5.1%{transform:translateX(-600px)}6%{transform:translateX(-700px)}6.8%{transform:translateX(-800px)}7.7%{transform:translateX(-900px)}8.5%{transform:translateX(-1000px)}9.4%{transform:translateX(-1100px)}10.3%{transform:translateX(-1200px)}11.1%{transform:translateX(-1300px)}12%{transform:translateX(-1400px)}12.8%{transform:translateX(-1500px)}13.7%{transform:translateX(-1600px)}14.5%{transform:translateX(-1700px)}15.4%{transform:translateX(-1800px)}16.2%{transform:translateX(-1900px)}17.1%{transform:translateX(-2000px)}17.7%{transform:translateX(-3100px)}21.3%{transform:translateX(-3200px)}24.9%{transform:translateX(-3300px)}28.5%{transform:translateX(-3400px)}32.1%{transform:translateX(-3500px)}35.7%{transform:translateX(-3600px)}39.3%{transform:translateX(-3700px)}42.9%{transform:translateX(-3800px)}46.5%{transform:translateX(-3900px)}50.1%{transform:translateX(-4000px)}53.7%{transform:translateX(-4100px)}57.3%{transform:translateX(-4200px)}60.9%{transform:translateX(-4300px)}64.5%{transform:translateX(-4400px)}68.1%{transform:translateX(-4500px)}71.7%{transform:translateX(-4600px)}75.3%{transform:translateX(-4700px)}78.9%{transform:translateX(-4800px)}82.5%{transform:translateX(-4900px)}86.1%{transform:translateX(-5000px)}89.7%{transform:translateX(-5100px)}93.3%{transform:translateX(-5200px)}96.9%{transform:translateX(-5300px)}to{transform:translateX(-5400px)}}.a{fill:#282d35}.f,.g{fill:#b9c0cb;white-space:pre}.g{font-weight:700}</style><g font-family="Monaco,Consolas,Menlo,'Bitstream Vera Sans Mono','Powerline Symbols',monospace" font-size="1.67"><defs><symbol id="1"><text y="1.67" class="f">$</text><text x="2.004" y="1.67" class="f">acmg</text></symbol><symbol id="2"><text y="1.67" class="f">$</text><text x="2.004" y="1.67" class="f">acmg</text><text x="7.014" y="1.67" class="f">eval</text></symbol><symbol id="3"><text y="1.67" class="f">$</text><text x="2.004" y="1.67" class="f">acmg</text><text x="7.014" y="1.67" class="f">eval</text><text x="12.024" y="1.67" class="f">--summary</text></symbol><symbol id="4"><text y="1.67" class="g">acmg-triage</text><text x="12.024" y="1.67" class="g">eval</text><text x="18.036" y="1.67" class="f">n=100</text><text x="24.048" y="1.67" class="f">committed</text><text x="34.068" y="1.67" class="f">probe</text><text x="40.08" y="1.67" class="f">variants</text></symbol><symbol id="5"><text x="48.096" y="1.67" class="f">System</text><text x="84.168" y="1.67" class="f">Conc.</text><text x="93.186" y="1.67" class="f">n</text><text x="96.192" y="1.67" class="f">Note</text></symbol><symbol id="6"><text y="1.67" class="f">s</text></symbol><symbol id="7"><text x="1.002" y="1.67" class="f">Rules-only</text><text x="12.024" y="1.67" class="f">baseline</text><text x="21.042" y="1.67" class="f">(Phase</text><text x="28.056" y="1.67" class="f">0)</text><text x="37.074" y="1.67" class="f">0.670</text><text x="44.088" y="1.67" class="f">100</text><text x="49.098" y="1.67" class="f">2015</text><text x="54.108" y="1.67" class="f">computational</text><text x="68.136" y="1.67" class="f">codes</text><text x="74.148" y="1.67" class="f">+</text><text x="76.152" y="1.67" class="f">table</text></symbol><symbol id="8"><text x="81.162" y="1.67" class="f">Frequency-threshold</text></symbol><symbol id="9"><text y="1.67" class="f">-only</text><text x="17.034" y="1.67" class="f">0.770</text><text x="24.048" y="1.67" class="f">100</text><text x="29.058" y="1.67" class="f">BA1/BS1/PM2</text><text x="41.082" y="1.67" class="f">only</text></symbol><symbol id="10"><text x="45.09" y="1.67" class="f">Full</text><text x="50.1" y="1.67" class="f">system</text><text x="57.114" y="1.67" class="f">(LLM</text><text x="62.124" y="1.67" class="f">on)</text><text x="81.162" y="1.67" class="f">0.670</text><text x="88.176" y="1.67" class="f">100</text><text x="93.186" y="1.67" class="f">typed</text><text x="99.198" y="1.67" class="f">g</text></symbol><symbol id="11"><text y="1.67" class="f">raph,</text><text x="6.012" y="1.67" class="f">literature</text><text x="17.034" y="1.67" class="f">cache-only</text></symbol><symbol id="12"><text x="27.054" y="1.67" class="f">Full</text><text x="32.064" y="1.67" class="f">system</text><text x="39.078" y="1.67" class="f">(LLM</text><text x="44.088" y="1.67" class="f">off)</text><text x="63.126" y="1.67" class="f">0.670</text><text x="70.14" y="1.67" class="f">100</text><text x="75.15" y="1.67" class="f">must</text><text x="80.16" y="1.67" class="f">equal</text><text x="86.172" y="1.67" class="f">rules-only</text></symbol><symbol id="13"><text x="96.192" y="1.67" class="f">Rule</text></symbol><symbol id="14"><text y="1.67" class="f">s-only</text><text x="7.014" y="1.67" class="f">is</text><text x="10.02" y="1.67" class="f">the</text><text x="14.028" y="1.67" class="f">published</text><text x="24.048" y="1.67" class="f">baseline.</text><text x="34.068" y="1.67" class="f">Literature-disabled</text><text x="54.108" y="1.67" class="f">equals</text><text x="61.122" y="1.67" class="f">rules-only</text><text x="72.144" y="1.67" class="f">(0.670).</text><text x="81.162" y="1.67" class="f">Full</text><text x="86.172" y="1.67" class="f">system</text></symbol><symbol id="15"><text x="93.186" y="1.67" class="f">uses</text><text x="98.196" y="1.67" class="f">th</text></symbol><symbol id="16"><text y="1.67" class="f">e</text><text x="2.004" y="1.67" class="f">typed</text><text x="8.016" y="1.67" class="f">graph</text><text x="14.028" y="1.67" class="f">(VCEP</text><text x="20.04" y="1.67" class="f">overlay</text><text x="28.056" y="1.67" class="f">reported;</text><text x="38.076" y="1.67" class="f">literature</text><text x="49.098" y="1.67" class="f">cache-only,</text><text x="61.122" y="1.67" class="f">cost=0).</text></symbol><symbol id="a"><path fill="transparent" d="M0 0h100v31H0z"/></symbol><symbol id="b"><path fill="#6f7683" d="M0 0h1.102v2.171H0z"/></symbol></defs><path class="a" d="M0 0h100v65.13H0z"/><g style="animation-duration:9.7237s;animation-iteration-count:infinite;animation-name:j;animation-timing-function:steps(1,end)"><svg width="5500"><svg><use xlink:href="#a"/><use xlink:href="#b" x="-.004"/></svg><svg x="100"><use xlink:href="#a"/><use xlink:href="#b" x="1.996"/><text y="1.67" class="f">$</text></svg><svg x="200"><use xlink:href="#a"/><use xlink:href="#b" x="2.996"/><text y="1.67" class="f">$</text><text x="2.004" y="1.67" class="f">a</text></svg><svg x="300"><use xlink:href="#a"/><use xlink:href="#b" x="3.996"/><text y="1.67" class="f">$</text><text x="2.004" y="1.67" class="f">ac</text></svg><svg x="400"><use xlink:href="#a"/><use xlink:href="#b" x="4.996"/><text y="1.67" class="f">$</text><text x="2.004" y="1.67" class="f">acm</text></svg><svg x="500"><use xlink:href="#a"/><use xlink:href="#b" x="5.996"/><use xlink:href="#1"/></svg><svg x="600"><use xlink:href="#a"/><use xlink:href="#b" x="6.996"/><use xlink:href="#1"/></svg><svg x="700"><use xlink:href="#a"/><use xlink:href="#b" x="7.996"/><text y="1.67" class="f">$</text><text x="2.004" y="1.67" class="f">acmg</text><text x="7.014" y="1.67" class="f">e</text></svg><svg x="800"><use xlink:href="#a"/><use xlink:href="#b" x="8.996"/><text y="1.67" class="f">$</text><text x="2.004" y="1.67" class="f">acmg</text><text x="7.014" y="1.67" class="f">ev</text></svg><svg x="900"><use xlink:href="#a"/><use xlink:href="#b" x="9.996"/><text y="1.67" class="f">$</text><text x="2.004" y="1.67" class="f">acmg</text><text x="7.014" y="1.67" class="f">eva</text></svg><svg x="1000"><use xlink:href="#a"/><use xlink:href="#b" x="10.996"/><use xlink:href="#2"/></svg><svg x="1100"><use xlink:href="#a"/><use xlink:href="#b" x="11.996"/><use xlink:href="#2"/></svg><svg x="1200"><use xlink:href="#a"/><use xlink:href="#b" x="12.996"/><text y="1.67" class="f">$</text><text x="2.004" y="1.67" class="f">acmg</text><text x="7.014" y="1.67" class="f">eval</text><text x="12.024" y="1.67" class="f">-</text></svg><svg x="1300"><use xlink:href="#a"/><use xlink:href="#b" x="13.996"/><text y="1.67" class="f">$</text><text x="2.004" y="1.67" class="f">acmg</text><text x="7.014" y="1.67" class="f">eval</text><text x="12.024" y="1.67" class="f">--</text></svg><svg x="1400"><use xlink:href="#a"/><use xlink:href="#b" x="14.996"/><text y="1.67" class="f">$</text><text x="2.004" y="1.67" class="f">acmg</text><text x="7.014" y="1.67" class="f">eval</text><text x="12.024" y="1.67" class="f">--s</text></svg><svg x="1500"><use xlink:href="#a"/><use xlink:href="#b" x="15.996"/><text y="1.67" class="f">$</text><text x="2.004" y="1.67" class="f">acmg</text><text x="7.014" y="1.67" class="f">eval</text><text x="12.024" y="1.67" class="f">--su</text></svg><svg x="1600"><use xlink:href="#a"/><use xlink:href="#b" x="16.996"/><text y="1.67" class="f">$</text><text x="2.004" y="1.67" class="f">acmg</text><text x="7.014" y="1.67" class="f">eval</text><text x="12.024" y="1.67" class="f">--sum</text></svg><svg x="1700"><use xlink:href="#a"/><use xlink:href="#b" x="17.996"/><text y="1.67" class="f">$</text><text x="2.004" y="1.67" class="f">acmg</text><text x="7.014" y="1.67" class="f">eval</text><text x="12.024" y="1.67" class="f">--summ</text></svg><svg x="1800"><use xlink:href="#a"/><use xlink:href="#b" x="18.996"/><text y="1.67" class="f">$</text><text x="2.004" y="1.67" class="f">acmg</text><text x="7.014" y="1.67" class="f">eval</text><text x="12.024" y="1.67" class="f">--summa</text></svg><svg x="1900"><use xlink:href="#a"/><use xlink:href="#b" x="19.996"/><text y="1.67" class="f">$</text><text x="2.004" y="1.67" class="f">acmg</text><text x="7.014" y="1.67" class="f">eval</text><text x="12.024" y="1.67" class="f">--summar</text></svg><svg x="2000"><use xlink:href="#a"/><use xlink:href="#b" x="20.996"/><use xlink:href="#3"/></svg><svg x="2100"><use xlink:href="#a"/><use xlink:href="#b" x="-.004" y="2.146"/><use xlink:href="#3"/></svg><svg x="2200"><use xlink:href="#a"/><use xlink:href="#b" x="47.996" y="4.317"/><use xlink:href="#3"/><use xlink:href="#4" y="2.171"/></svg><svg x="2300"><use xlink:href="#a"/><use xlink:href="#b" x="47.996" y="6.488"/><use xlink:href="#3"/><use xlink:href="#4" y="2.171"/></svg><svg x="2400"><use xlink:href="#a"/><use xlink:href="#b" x=".996" y="10.83"/><use xlink:href="#3"/><use xlink:href="#4" y="2.171"/><use xlink:href="#5" y="6.513"/><use xlink:href="#6" y="8.684"/></svg><svg x="2500"><use xlink:href="#a"/><use xlink:href="#b" x="80.996" y="13.001"/><use xlink:href="#3"/><use xlink:href="#4" y="2.171"/><use xlink:href="#5" y="6.513"/><use xlink:href="#6" y="8.684"/><use xlink:href="#7" y="10.855"/></svg><svg x="2600"><use xlink:href="#a"/><use xlink:href="#b" x="44.996" y="17.343"/><use xlink:href="#3"/><use xlink:href="#4" y="2.171"/><use xlink:href="#5" y="6.513"/><use xlink:href="#6" y="8.684"/><use xlink:href="#7" y="10.855"/><use xlink:href="#8" y="13.026"/><use xlink:href="#9" y="15.197"/></svg><svg x="2700"><use xlink:href="#a"/><use xlink:href="#b" x="26.996" y="21.685"/><use xlink:href="#3"/><use xlink:href="#4" y="2.171"/><use xlink:href="#5" y="6.513"/><use xlink:href="#6" y="8.684"/><use xlink:href="#7" y="10.855"/><use xlink:href="#8" y="13.026"/><use xlink:href="#9" y="15.197"/><use xlink:href="#10" y="17.368"/><use xlink:href="#11" y="19.539"/></svg><svg x="2800"><use xlink:href="#a"/><use xlink:href="#b" x="95.996" y="23.856"/><use xlink:href="#3"/><use xlink:href="#4" y="2.171"/><use xlink:href="#5" y="6.513"/><use xlink:href="#6" y="8.684"/><use xlink:href="#7" y="10.855"/><use xlink:href="#8" y="13.026"/><use xlink:href="#9" y="15.197"/><use xlink:href="#10" y="17.368"/><use xlink:href="#11" y="19.539"/><use xlink:href="#12" y="21.71"/></svg><svg x="2900"><use xlink:href="#a"/><use xlink:href="#b" x="95.996" y="26.027"/><use xlink:href="#3"/><use xlink:href="#4" y="2.171"/><use xlink:href="#5" y="6.513"/><use xlink:href="#6" y="8.684"/><use xlink:href="#7" y="10.855"/><use xlink:href="#8" y="13.026"/><use xlink:href="#9" y="15.197"/><use xlink:href="#10" y="17.368"/><use xlink:href="#11" y="19.539"/><use xlink:href="#12" y="21.71"/></svg><svg x="3000"><use xlink:href="#a"/><use xlink:href="#b" x="92.996" y="30.369"/><use xlink:href="#3"/><use xlink:href="#4" y="2.171"/><use xlink:href="#5" y="6.513"/><use xlink:href="#6" y="8.684"/><use xlink:href="#7" y="10.855"/><use xlink:href="#8" y="13.026"/><use xlink:href="#9" y="15.197"/><use xlink:href="#10" y="17.368"/><use xlink:href="#11" y="19.539"/><use xlink:href="#12" y="21.71"/><use xlink:href="#13" y="26.052"/><use xlink:href="#14" y="28.223"/></svg><svg x="3100"><use xlink:href="#a"/><use xlink:href="#b" x="68.996" y="34.711"/><use xlink:href="#3"/><use xlink:href="#4" y="2.171"/><use xlink:href="#5" y="6.513"/><use xlink:href="#6" y="8.684"/><use xlink:href="#7" y="10.855"/><use xlink:href="#8" y="13.026"/><use xlink:href="#9" y="15.197"/><use xlink:href="#10" y="17.368"/><use xlink:href="#11" y="19.539"/><use xlink:href="#12" y="21.71"/><use xlink:href="#13" y="26.052"/><use xlink:href="#14" y="28.223"/><use xlink:href="#15" y="30.394"/><use xlink:href="#16" y="32.565"/></svg><svg x="3200"><use xlink:href="#a"/><use xlink:href="#b" x="68.996" y="34.711"/><use xlink:href="#3"/><use xlink:href="#4" y="2.171"/><use xlink:href="#5" y="6.513"/><use xlink:href="#6" y="8.684"/><use xlink:href="#7" y="10.855"/><use xlink:href="#8" y="13.026"/><use xlink:href="#9" y="15.197"/><use xlink:href="#10" y="17.368"/><use xlink:href="#11" y="19.539"/><use xlink:href="#12" y="21.71"/><use xlink:href="#13" y="26.052"/><use xlink:href="#14" y="28.223"/><use xlink:href="#15" y="30.394"/><use xlink:href="#16" y="32.565"/></svg><svg x="3300"><use xlink:href="#a"/><use xlink:href="#b" x="68.996" y="34.711"/><use xlink:href="#3"/><use xlink:href="#4" y="2.171"/><use xlink:href="#5" y="6.513"/><use xlink:href="#6" y="8.684"/><use xlink:href="#7" y="10.855"/><use xlink:href="#8" y="13.026"/><use xlink:href="#9" y="15.197"/><use xlink:href="#10" y="17.368"/><use xlink:href="#11" y="19.539"/><use xlink:href="#12" y="21.71"/><use xlink:href="#13" y="26.052"/><use xlink:href="#14" y="28.223"/><use xlink:href="#15" y="30.394"/><use xlink:href="#16" y="32.565"/></svg><svg x="3400"><use xlink:href="#a"/><use xlink:href="#b" x="68.996" y="34.711"/><use xlink:href="#3"/><use xlink:href="#4" y="2.171"/><use xlink:href="#5" y="6.513"/><use xlink:href="#6" y="8.684"/><use xlink:href="#7" y="10.855"/><use xlink:href="#8" y="13.026"/><use xlink:href="#9" y="15.197"/><use xlink:href="#10" y="17.368"/><use xlink:href="#11" y="19.539"/><use xlink:href="#12" y="21.71"/><use xlink:href="#13" y="26.052"/><use xlink:href="#14" y="28.223"/><use xlink:href="#15" y="30.394"/><use xlink:href="#16" y="32.565"/></svg><svg x="3500"><use xlink:href="#a"/><use xlink:href="#b" x="68.996" y="34.711"/><use xlink:href="#3"/><use xlink:href="#4" y="2.171"/><use xlink:href="#5" y="6.513"/><use xlink:href="#6" y="8.684"/><use xlink:href="#7" y="10.855"/><use xlink:href="#8" y="13.026"/><use xlink:href="#9" y="15.197"/><use xlink:href="#10" y="17.368"/><use xlink:href="#11" y="19.539"/><use xlink:href="#12" y="21.71"/><use xlink:href="#13" y="26.052"/><use xlink:href="#14" y="28.223"/><use xlink:href="#15" y="30.394"/><use xlink:href="#16" y="32.565"/></svg><svg x="3600"><use xlink:href="#a"/><use xlink:href="#b" x="68.996" y="34.711"/><use xlink:href="#3"/><use xlink:href="#4" y="2.171"/><use xlink:href="#5" y="6.513"/><use xlink:href="#6" y="8.684"/><use xlink:href="#7" y="10.855"/><use xlink:href="#8" y="13.026"/><use xlink:href="#9" y="15.197"/><use xlink:href="#10" y="17.368"/><use xlink:href="#11" y="19.539"/><use xlink:href="#12" y="21.71"/><use xlink:href="#13" y="26.052"/><use xlink:href="#14" y="28.223"/><use xlink:href="#15" y="30.394"/><use xlink:href="#16" y="32.565"/></svg><svg x="3700"><use xlink:href="#a"/><use xlink:href="#b" x="68.996" y="34.711"/><use xlink:href="#3"/><use xlink:href="#4" y="2.171"/><use xlink:href="#5" y="6.513"/><use xlink:href="#6" y="8.684"/><use xlink:href="#7" y="10.855"/><use xlink:href="#8" y="13.026"/><use xlink:href="#9" y="15.197"/><use xlink:href="#10" y="17.368"/><use xlink:href="#11" y="19.539"/><use xlink:href="#12" y="21.71"/><use xlink:href="#13" y="26.052"/><use xlink:href="#14" y="28.223"/><use xlink:href="#15" y="30.394"/><use xlink:href="#16" y="32.565"/></svg><svg x="3800"><use xlink:href="#a"/><use xlink:href="#b" x="68.996" y="34.711"/><use xlink:href="#3"/><use xlink:href="#4" y="2.171"/><use xlink:href="#5" y="6.513"/><use xlink:href="#6" y="8.684"/><use xlink:href="#7" y="10.855"/><use xlink:href="#8" y="13.026"/><use xlink:href="#9" y="15.197"/><use xlink:href="#10" y="17.368"/><use xlink:href="#11" y="19.539"/><use xlink:href="#12" y="21.71"/><use xlink:href="#13" y="26.052"/><use xlink:href="#14" y="28.223"/><use xlink:href="#15" y="30.394"/><use xlink:href="#16" y="32.565"/></svg><svg x="3900"><use xlink:href="#a"/><use xlink:href="#b" x="68.996" y="34.711"/><use xlink:href="#3"/><use xlink:href="#4" y="2.171"/><use xlink:href="#5" y="6.513"/><use xlink:href="#6" y="8.684"/><use xlink:href="#7" y="10.855"/><use xlink:href="#8" y="13.026"/><use xlink:href="#9" y="15.197"/><use xlink:href="#10" y="17.368"/><use xlink:href="#11" y="19.539"/><use xlink:href="#12" y="21.71"/><use xlink:href="#13" y="26.052"/><use xlink:href="#14" y="28.223"/><use xlink:href="#15" y="30.394"/><use xlink:href="#16" y="32.565"/></svg><svg x="4000"><use xlink:href="#a"/><use xlink:href="#b" x="68.996" y="34.711"/><use xlink:href="#3"/><use xlink:href="#4" y="2.171"/><use xlink:href="#5" y="6.513"/><use xlink:href="#6" y="8.684"/><use xlink:href="#7" y="10.855"/><use xlink:href="#8" y="13.026"/><use xlink:href="#9" y="15.197"/><use xlink:href="#10" y="17.368"/><use xlink:href="#11" y="19.539"/><use xlink:href="#12" y="21.71"/><use xlink:href="#13" y="26.052"/><use xlink:href="#14" y="28.223"/><use xlink:href="#15" y="30.394"/><use xlink:href="#16" y="32.565"/></svg><svg x="4100"><use xlink:href="#a"/><use xlink:href="#b" x="68.996" y="34.711"/><use xlink:href="#3"/><use xlink:href="#4" y="2.171"/><use xlink:href="#5" y="6.513"/><use xlink:href="#6" y="8.684"/><use xlink:href="#7" y="10.855"/><use xlink:href="#8" y="13.026"/><use xlink:href="#9" y="15.197"/><use xlink:href="#10" y="17.368"/><use xlink:href="#11" y="19.539"/><use xlink:href="#12" y="21.71"/><use xlink:href="#13" y="26.052"/><use xlink:href="#14" y="28.223"/><use xlink:href="#15" y="30.394"/><use xlink:href="#16" y="32.565"/></svg><svg x="4200"><use xlink:href="#a"/><use xlink:href="#b" x="68.996" y="34.711"/><use xlink:href="#3"/><use xlink:href="#4" y="2.171"/><use xlink:href="#5" y="6.513"/><use xlink:href="#6" y="8.684"/><use xlink:href="#7" y="10.855"/><use xlink:href="#8" y="13.026"/><use xlink:href="#9" y="15.197"/><use xlink:href="#10" y="17.368"/><use xlink:href="#11" y="19.539"/><use xlink:href="#12" y="21.71"/><use xlink:href="#13" y="26.052"/><use xlink:href="#14" y="28.223"/><use xlink:href="#15" y="30.394"/><use xlink:href="#16" y="32.565"/></svg><svg x="4300"><use xlink:href="#a"/><use xlink:href="#b" x="68.996" y="34.711"/><use xlink:href="#3"/><use xlink:href="#4" y="2.171"/><use xlink:href="#5" y="6.513"/><use xlink:href="#6" y="8.684"/><use xlink:href="#7" y="10.855"/><use xlink:href="#8" y="13.026"/><use xlink:href="#9" y="15.197"/><use xlink:href="#10" y="17.368"/><use xlink:href="#11" y="19.539"/><use xlink:href="#12" y="21.71"/><use xlink:href="#13" y="26.052"/><use xlink:href="#14" y="28.223"/><use xlink:href="#15" y="30.394"/><use xlink:href="#16" y="32.565"/></svg><svg x="4400"><use xlink:href="#a"/><use xlink:href="#b" x="68.996" y="34.711"/><use xlink:href="#3"/><use xlink:href="#4" y="2.171"/><use xlink:href="#5" y="6.513"/><use xlink:href="#6" y="8.684"/><use xlink:href="#7" y="10.855"/><use xlink:href="#8" y="13.026"/><use xlink:href="#9" y="15.197"/><use xlink:href="#10" y="17.368"/><use xlink:href="#11" y="19.539"/><use xlink:href="#12" y="21.71"/><use xlink:href="#13" y="26.052"/><use xlink:href="#14" y="28.223"/><use xlink:href="#15" y="30.394"/><use xlink:href="#16" y="32.565"/></svg><svg x="4500"><use xlink:href="#a"/><use xlink:href="#b" x="68.996" y="34.711"/><use xlink:href="#3"/><use xlink:href="#4" y="2.171"/><use xlink:href="#5" y="6.513"/><use xlink:href="#6" y="8.684"/><use xlink:href="#7" y="10.855"/><use xlink:href="#8" y="13.026"/><use xlink:href="#9" y="15.197"/><use xlink:href="#10" y="17.368"/><use xlink:href="#11" y="19.539"/><use xlink:href="#12" y="21.71"/><use xlink:href="#13" y="26.052"/><use xlink:href="#14" y="28.223"/><use xlink:href="#15" y="30.394"/><use xlink:href="#16" y="32.565"/></svg><svg x="4600"><use xlink:href="#a"/><use xlink:href="#b" x="68.996" y="34.711"/><use xlink:href="#3"/><use xlink:href="#4" y="2.171"/><use xlink:href="#5" y="6.513"/><use xlink:href="#6" y="8.684"/><use xlink:href="#7" y="10.855"/><use xlink:href="#8" y="13.026"/><use xlink:href="#9" y="15.197"/><use xlink:href="#10" y="17.368"/><use xlink:href="#11" y="19.539"/><use xlink:href="#12" y="21.71"/><use xlink:href="#13" y="26.052"/><use xlink:href="#14" y="28.223"/><use xlink:href="#15" y="30.394"/><use xlink:href="#16" y="32.565"/></svg><svg x="4700"><use xlink:href="#a"/><use xlink:href="#b" x="68.996" y="34.711"/><use xlink:href="#3"/><use xlink:href="#4" y="2.171"/><use xlink:href="#5" y="6.513"/><use xlink:href="#6" y="8.684"/><use xlink:href="#7" y="10.855"/><use xlink:href="#8" y="13.026"/><use xlink:href="#9" y="15.197"/><use xlink:href="#10" y="17.368"/><use xlink:href="#11" y="19.539"/><use xlink:href="#12" y="21.71"/><use xlink:href="#13" y="26.052"/><use xlink:href="#14" y="28.223"/><use xlink:href="#15" y="30.394"/><use xlink:href="#16" y="32.565"/></svg><svg x="4800"><use xlink:href="#a"/><use xlink:href="#b" x="68.996" y="34.711"/><use xlink:href="#3"/><use xlink:href="#4" y="2.171"/><use xlink:href="#5" y="6.513"/><use xlink:href="#6" y="8.684"/><use xlink:href="#7" y="10.855"/><use xlink:href="#8" y="13.026"/><use xlink:href="#9" y="15.197"/><use xlink:href="#10" y="17.368"/><use xlink:href="#11" y="19.539"/><use xlink:href="#12" y="21.71"/><use xlink:href="#13" y="26.052"/><use xlink:href="#14" y="28.223"/><use xlink:href="#15" y="30.394"/><use xlink:href="#16" y="32.565"/></svg><svg x="4900"><use xlink:href="#a"/><use xlink:href="#b" x="68.996" y="34.711"/><use xlink:href="#3"/><use xlink:href="#4" y="2.171"/><use xlink:href="#5" y="6.513"/><use xlink:href="#6" y="8.684"/><use xlink:href="#7" y="10.855"/><use xlink:href="#8" y="13.026"/><use xlink:href="#9" y="15.197"/><use xlink:href="#10" y="17.368"/><use xlink:href="#11" y="19.539"/><use xlink:href="#12" y="21.71"/><use xlink:href="#13" y="26.052"/><use xlink:href="#14" y="28.223"/><use xlink:href="#15" y="30.394"/><use xlink:href="#16" y="32.565"/></svg><svg x="5000"><use xlink:href="#a"/><use xlink:href="#b" x="68.996" y="34.711"/><use xlink:href="#3"/><use xlink:href="#4" y="2.171"/><use xlink:href="#5" y="6.513"/><use xlink:href="#6" y="8.684"/><use xlink:href="#7" y="10.855"/><use xlink:href="#8" y="13.026"/><use xlink:href="#9" y="15.197"/><use xlink:href="#10" y="17.368"/><use xlink:href="#11" y="19.539"/><use xlink:href="#12" y="21.71"/><use xlink:href="#13" y="26.052"/><use xlink:href="#14" y="28.223"/><use xlink:href="#15" y="30.394"/><use xlink:href="#16" y="32.565"/></svg><svg x="5100"><use xlink:href="#a"/><use xlink:href="#b" x="68.996" y="34.711"/><use xlink:href="#3"/><use xlink:href="#4" y="2.171"/><use xlink:href="#5" y="6.513"/><use xlink:href="#6" y="8.684"/><use xlink:href="#7" y="10.855"/><use xlink:href="#8" y="13.026"/><use xlink:href="#9" y="15.197"/><use xlink:href="#10" y="17.368"/><use xlink:href="#11" y="19.539"/><use xlink:href="#12" y="21.71"/><use xlink:href="#13" y="26.052"/><use xlink:href="#14" y="28.223"/><use xlink:href="#15" y="30.394"/><use xlink:href="#16" y="32.565"/></svg><svg x="5200"><use xlink:href="#a"/><use xlink:href="#b" x="68.996" y="34.711"/><use xlink:href="#3"/><use xlink:href="#4" y="2.171"/><use xlink:href="#5" y="6.513"/><use xlink:href="#6" y="8.684"/><use xlink:href="#7" y="10.855"/><use xlink:href="#8" y="13.026"/><use xlink:href="#9" y="15.197"/><use xlink:href="#10" y="17.368"/><use xlink:href="#11" y="19.539"/><use xlink:href="#12" y="21.71"/><use xlink:href="#13" y="26.052"/><use xlink:href="#14" y="28.223"/><use xlink:href="#15" y="30.394"/><use xlink:href="#16" y="32.565"/></svg><svg x="5300"><use xlink:href="#a"/><use xlink:href="#b" x="68.996" y="34.711"/><use xlink:href="#3"/><use xlink:href="#4" y="2.171"/><use xlink:href="#5" y="6.513"/><use xlink:href="#6" y="8.684"/><use xlink:href="#7" y="10.855"/><use xlink:href="#8" y="13.026"/><use xlink:href="#9" y="15.197"/><use xlink:href="#10" y="17.368"/><use xlink:href="#11" y="19.539"/><use xlink:href="#12" y="21.71"/><use xlink:href="#13" y="26.052"/><use xlink:href="#14" y="28.223"/><use xlink:href="#15" y="30.394"/><use xlink:href="#16" y="32.565"/></svg><svg x="5400"><use xlink:href="#a"/><use xlink:href="#b" x="68.996" y="34.711"/><use xlink:href="#3"/><use xlink:href="#4" y="2.171"/><use xlink:href="#5" y="6.513"/><use xlink:href="#6" y="8.684"/><use xlink:href="#7" y="10.855"/><use xlink:href="#8" y="13.026"/><use xlink:href="#9" y="15.197"/><use xlink:href="#10" y="17.368"/><use xlink:href="#11" y="19.539"/><use xlink:href="#12" y="21.71"/><use xlink:href="#13" y="26.052"/><use xlink:href="#14" y="28.223"/><use xlink:href="#15" y="30.394"/><use xlink:href="#16" y="32.565"/></svg></svg></g></g></svg></svg>